<mxfile host="app.diagrams.net" agent="Mozilla/5.0 (Windows NT 10.0; Win64; x64; rv:133.0) Gecko/20100101 Firefox/133.0" version="25.0.1">
  <diagram name="Page-1" id="L9-AMFKxeb9hTkN64Ojg">
    <mxGraphModel dx="3316" dy="1044" grid="1" gridSize="10" guides="1" tooltips="1" connect="1" arrows="1" fold="1" page="1" pageScale="1" pageWidth="827" pageHeight="1169" math="0" shadow="0">
      <root>
        <mxCell id="0" />
        <mxCell id="1" parent="0" />
        <mxCell id="ArgfW7lMdCNn1MuLzISp-18" value="RoleName" style="ellipse;whiteSpace=wrap;html=1;" vertex="1" parent="1">
          <mxGeometry x="259" y="830" width="90" height="30" as="geometry" />
        </mxCell>
        <mxCell id="ArgfW7lMdCNn1MuLzISp-19" value="RoleID" style="ellipse;whiteSpace=wrap;html=1;" vertex="1" parent="1">
          <mxGeometry x="259" y="770" width="90" height="30" as="geometry" />
        </mxCell>
        <mxCell id="ArgfW7lMdCNn1MuLzISp-20" value="" style="endArrow=none;html=1;rounded=0;exitX=0;exitY=0.5;exitDx=0;exitDy=0;entryX=1;entryY=0.25;entryDx=0;entryDy=0;" edge="1" parent="1" source="ArgfW7lMdCNn1MuLzISp-19" target="ArgfW7lMdCNn1MuLzISp-117">
          <mxGeometry width="50" height="50" relative="1" as="geometry">
            <mxPoint x="259" y="870" as="sourcePoint" />
            <mxPoint x="193" y="880" as="targetPoint" />
          </mxGeometry>
        </mxCell>
        <mxCell id="ArgfW7lMdCNn1MuLzISp-21" value="" style="endArrow=none;html=1;rounded=0;exitX=0;exitY=0.5;exitDx=0;exitDy=0;entryX=1;entryY=0.75;entryDx=0;entryDy=0;" edge="1" parent="1" source="ArgfW7lMdCNn1MuLzISp-18" target="ArgfW7lMdCNn1MuLzISp-117">
          <mxGeometry width="50" height="50" relative="1" as="geometry">
            <mxPoint x="251" y="885" as="sourcePoint" />
            <mxPoint x="193" y="880" as="targetPoint" />
          </mxGeometry>
        </mxCell>
        <mxCell id="ArgfW7lMdCNn1MuLzISp-22" value="Users" style="rounded=0;whiteSpace=wrap;html=1;" vertex="1" parent="1">
          <mxGeometry x="92.75" y="985" width="97" height="40" as="geometry" />
        </mxCell>
        <mxCell id="ArgfW7lMdCNn1MuLzISp-25" value="UserID" style="ellipse;whiteSpace=wrap;html=1;" vertex="1" parent="1">
          <mxGeometry x="248" y="1009" width="90" height="30" as="geometry" />
        </mxCell>
        <mxCell id="ArgfW7lMdCNn1MuLzISp-26" value="Name" style="ellipse;whiteSpace=wrap;html=1;" vertex="1" parent="1">
          <mxGeometry x="243" y="1049" width="90" height="30" as="geometry" />
        </mxCell>
        <mxCell id="ArgfW7lMdCNn1MuLzISp-27" value="Email" style="ellipse;whiteSpace=wrap;html=1;" vertex="1" parent="1">
          <mxGeometry x="243" y="1089" width="90" height="30" as="geometry" />
        </mxCell>
        <mxCell id="ArgfW7lMdCNn1MuLzISp-28" value="Password" style="ellipse;whiteSpace=wrap;html=1;" vertex="1" parent="1">
          <mxGeometry x="243" y="1134" width="90" height="30" as="geometry" />
        </mxCell>
        <mxCell id="ArgfW7lMdCNn1MuLzISp-29" value="Phone" style="ellipse;whiteSpace=wrap;html=1;" vertex="1" parent="1">
          <mxGeometry x="243" y="1174" width="90" height="30" as="geometry" />
        </mxCell>
        <mxCell id="ArgfW7lMdCNn1MuLzISp-30" value="RoleId" style="ellipse;whiteSpace=wrap;html=1;" vertex="1" parent="1">
          <mxGeometry x="243" y="1214" width="90" height="30" as="geometry" />
        </mxCell>
        <mxCell id="ArgfW7lMdCNn1MuLzISp-31" value="&lt;code&gt;RegistrationDate&lt;/code&gt;" style="ellipse;whiteSpace=wrap;html=1;" vertex="1" parent="1">
          <mxGeometry x="219" y="1260" width="136" height="30" as="geometry" />
        </mxCell>
        <mxCell id="ArgfW7lMdCNn1MuLzISp-32" value="" style="endArrow=none;html=1;rounded=0;exitX=0;exitY=0.5;exitDx=0;exitDy=0;entryX=1;entryY=0.25;entryDx=0;entryDy=0;" edge="1" parent="1" source="ArgfW7lMdCNn1MuLzISp-25" target="ArgfW7lMdCNn1MuLzISp-22">
          <mxGeometry width="50" height="50" relative="1" as="geometry">
            <mxPoint x="273" y="910" as="sourcePoint" />
            <mxPoint x="210" y="1000" as="targetPoint" />
          </mxGeometry>
        </mxCell>
        <mxCell id="ArgfW7lMdCNn1MuLzISp-33" value="" style="endArrow=none;html=1;rounded=0;entryX=1;entryY=0.5;entryDx=0;entryDy=0;" edge="1" parent="1" source="ArgfW7lMdCNn1MuLzISp-26" target="ArgfW7lMdCNn1MuLzISp-22">
          <mxGeometry width="50" height="50" relative="1" as="geometry">
            <mxPoint x="283" y="920" as="sourcePoint" />
            <mxPoint x="228" y="915" as="targetPoint" />
          </mxGeometry>
        </mxCell>
        <mxCell id="ArgfW7lMdCNn1MuLzISp-34" value="" style="endArrow=none;html=1;rounded=0;entryX=1;entryY=0.75;entryDx=0;entryDy=0;exitX=0;exitY=0.5;exitDx=0;exitDy=0;" edge="1" parent="1" source="ArgfW7lMdCNn1MuLzISp-27" target="ArgfW7lMdCNn1MuLzISp-22">
          <mxGeometry width="50" height="50" relative="1" as="geometry">
            <mxPoint x="253" y="1020" as="sourcePoint" />
            <mxPoint x="212" y="1020" as="targetPoint" />
          </mxGeometry>
        </mxCell>
        <mxCell id="ArgfW7lMdCNn1MuLzISp-35" value="" style="endArrow=none;html=1;rounded=0;entryX=0.912;entryY=1.047;entryDx=0;entryDy=0;entryPerimeter=0;exitX=0;exitY=0.5;exitDx=0;exitDy=0;" edge="1" parent="1" source="ArgfW7lMdCNn1MuLzISp-28" target="ArgfW7lMdCNn1MuLzISp-22">
          <mxGeometry width="50" height="50" relative="1" as="geometry">
            <mxPoint x="263" y="1030" as="sourcePoint" />
            <mxPoint x="222" y="1030" as="targetPoint" />
          </mxGeometry>
        </mxCell>
        <mxCell id="ArgfW7lMdCNn1MuLzISp-36" value="" style="endArrow=none;html=1;rounded=0;entryX=0.939;entryY=0.96;entryDx=0;entryDy=0;entryPerimeter=0;exitX=0.043;exitY=0.714;exitDx=0;exitDy=0;exitPerimeter=0;" edge="1" parent="1" source="ArgfW7lMdCNn1MuLzISp-29" target="ArgfW7lMdCNn1MuLzISp-22">
          <mxGeometry width="50" height="50" relative="1" as="geometry">
            <mxPoint x="273" y="1040" as="sourcePoint" />
            <mxPoint x="232" y="1040" as="targetPoint" />
          </mxGeometry>
        </mxCell>
        <mxCell id="ArgfW7lMdCNn1MuLzISp-37" value="" style="endArrow=none;html=1;rounded=0;entryX=0.858;entryY=1.003;entryDx=0;entryDy=0;entryPerimeter=0;exitX=0;exitY=0.5;exitDx=0;exitDy=0;" edge="1" parent="1" source="ArgfW7lMdCNn1MuLzISp-30" target="ArgfW7lMdCNn1MuLzISp-22">
          <mxGeometry width="50" height="50" relative="1" as="geometry">
            <mxPoint x="283" y="1050" as="sourcePoint" />
            <mxPoint x="242" y="1050" as="targetPoint" />
          </mxGeometry>
        </mxCell>
        <mxCell id="ArgfW7lMdCNn1MuLzISp-38" value="" style="endArrow=none;html=1;rounded=0;entryX=0.75;entryY=1;entryDx=0;entryDy=0;exitX=0;exitY=0;exitDx=0;exitDy=0;" edge="1" parent="1" source="ArgfW7lMdCNn1MuLzISp-31" target="ArgfW7lMdCNn1MuLzISp-22">
          <mxGeometry width="50" height="50" relative="1" as="geometry">
            <mxPoint x="230" y="1220" as="sourcePoint" />
            <mxPoint x="252" y="1060" as="targetPoint" />
          </mxGeometry>
        </mxCell>
        <mxCell id="ArgfW7lMdCNn1MuLzISp-39" value="Categories" style="rounded=0;whiteSpace=wrap;html=1;" vertex="1" parent="1">
          <mxGeometry x="424" y="950" width="97" height="40" as="geometry" />
        </mxCell>
        <mxCell id="ArgfW7lMdCNn1MuLzISp-41" value="CategoryID" style="ellipse;whiteSpace=wrap;html=1;" vertex="1" parent="1">
          <mxGeometry x="584" y="930" width="90" height="30" as="geometry" />
        </mxCell>
        <mxCell id="ArgfW7lMdCNn1MuLzISp-42" value="CategoryName" style="ellipse;whiteSpace=wrap;html=1;" vertex="1" parent="1">
          <mxGeometry x="554" y="980" width="90" height="30" as="geometry" />
        </mxCell>
        <mxCell id="ArgfW7lMdCNn1MuLzISp-43" value="&lt;code&gt;ParentCategoryID&lt;/code&gt;" style="ellipse;whiteSpace=wrap;html=1;" vertex="1" parent="1">
          <mxGeometry x="535.5" y="1015" width="128.5" height="30" as="geometry" />
        </mxCell>
        <mxCell id="ArgfW7lMdCNn1MuLzISp-44" value="" style="endArrow=none;html=1;rounded=0;exitX=0;exitY=0.5;exitDx=0;exitDy=0;entryX=1;entryY=0.25;entryDx=0;entryDy=0;" edge="1" parent="1" source="ArgfW7lMdCNn1MuLzISp-41" target="ArgfW7lMdCNn1MuLzISp-39">
          <mxGeometry width="50" height="50" relative="1" as="geometry">
            <mxPoint x="258" y="980" as="sourcePoint" />
            <mxPoint x="197" y="1020" as="targetPoint" />
            <Array as="points" />
          </mxGeometry>
        </mxCell>
        <mxCell id="ArgfW7lMdCNn1MuLzISp-45" value="" style="endArrow=none;html=1;rounded=0;entryX=1;entryY=0.75;entryDx=0;entryDy=0;exitX=0;exitY=0.5;exitDx=0;exitDy=0;" edge="1" parent="1" source="ArgfW7lMdCNn1MuLzISp-42" target="ArgfW7lMdCNn1MuLzISp-39">
          <mxGeometry width="50" height="50" relative="1" as="geometry">
            <mxPoint x="594" y="955" as="sourcePoint" />
            <mxPoint x="536" y="965" as="targetPoint" />
            <Array as="points" />
          </mxGeometry>
        </mxCell>
        <mxCell id="ArgfW7lMdCNn1MuLzISp-46" value="" style="endArrow=none;html=1;rounded=0;exitX=0;exitY=0.5;exitDx=0;exitDy=0;entryX=1;entryY=1;entryDx=0;entryDy=0;" edge="1" parent="1" source="ArgfW7lMdCNn1MuLzISp-43" target="ArgfW7lMdCNn1MuLzISp-39">
          <mxGeometry width="50" height="50" relative="1" as="geometry">
            <mxPoint x="604" y="965" as="sourcePoint" />
            <mxPoint x="546" y="975" as="targetPoint" />
            <Array as="points" />
          </mxGeometry>
        </mxCell>
        <mxCell id="ArgfW7lMdCNn1MuLzISp-48" value="Listings" style="rounded=0;whiteSpace=wrap;html=1;" vertex="1" parent="1">
          <mxGeometry x="418" y="1190" width="97" height="40" as="geometry" />
        </mxCell>
        <mxCell id="ArgfW7lMdCNn1MuLzISp-49" value="Title" style="ellipse;whiteSpace=wrap;html=1;" vertex="1" parent="1">
          <mxGeometry x="551.5" y="1230" width="90" height="30" as="geometry" />
        </mxCell>
        <mxCell id="ArgfW7lMdCNn1MuLzISp-50" value="ListingID" style="ellipse;whiteSpace=wrap;html=1;" vertex="1" parent="1">
          <mxGeometry x="540" y="1190" width="90" height="30" as="geometry" />
        </mxCell>
        <mxCell id="ArgfW7lMdCNn1MuLzISp-51" value="Description" style="ellipse;whiteSpace=wrap;html=1;" vertex="1" parent="1">
          <mxGeometry x="559" y="1270" width="90" height="30" as="geometry" />
        </mxCell>
        <mxCell id="ArgfW7lMdCNn1MuLzISp-52" value="Price" style="ellipse;whiteSpace=wrap;html=1;" vertex="1" parent="1">
          <mxGeometry x="540" y="1310" width="90" height="30" as="geometry" />
        </mxCell>
        <mxCell id="ArgfW7lMdCNn1MuLzISp-53" value="CategoryID" style="ellipse;whiteSpace=wrap;html=1;" vertex="1" parent="1">
          <mxGeometry x="540" y="1350" width="90" height="30" as="geometry" />
        </mxCell>
        <mxCell id="ArgfW7lMdCNn1MuLzISp-54" value="UserID" style="ellipse;whiteSpace=wrap;html=1;" vertex="1" parent="1">
          <mxGeometry x="540" y="1390" width="90" height="30" as="geometry" />
        </mxCell>
        <mxCell id="ArgfW7lMdCNn1MuLzISp-55" value="DatePosted" style="ellipse;whiteSpace=wrap;html=1;" vertex="1" parent="1">
          <mxGeometry x="540" y="1430" width="90" height="30" as="geometry" />
        </mxCell>
        <mxCell id="ArgfW7lMdCNn1MuLzISp-57" value="Status" style="ellipse;whiteSpace=wrap;html=1;" vertex="1" parent="1">
          <mxGeometry x="540" y="1470" width="90" height="30" as="geometry" />
        </mxCell>
        <mxCell id="ArgfW7lMdCNn1MuLzISp-58" value="" style="endArrow=none;html=1;rounded=0;exitX=1;exitY=0;exitDx=0;exitDy=0;entryX=0;entryY=0.5;entryDx=0;entryDy=0;" edge="1" parent="1" source="ArgfW7lMdCNn1MuLzISp-48" target="ArgfW7lMdCNn1MuLzISp-50">
          <mxGeometry width="50" height="50" relative="1" as="geometry">
            <mxPoint x="490" y="1110" as="sourcePoint" />
            <mxPoint x="480" y="1065" as="targetPoint" />
            <Array as="points" />
          </mxGeometry>
        </mxCell>
        <mxCell id="ArgfW7lMdCNn1MuLzISp-59" value="" style="endArrow=none;html=1;rounded=0;exitX=1;exitY=0.25;exitDx=0;exitDy=0;entryX=0;entryY=0.5;entryDx=0;entryDy=0;" edge="1" parent="1" source="ArgfW7lMdCNn1MuLzISp-48" target="ArgfW7lMdCNn1MuLzISp-49">
          <mxGeometry width="50" height="50" relative="1" as="geometry">
            <mxPoint x="525" y="1205" as="sourcePoint" />
            <mxPoint x="554" y="1115" as="targetPoint" />
            <Array as="points" />
          </mxGeometry>
        </mxCell>
        <mxCell id="ArgfW7lMdCNn1MuLzISp-60" value="" style="endArrow=none;html=1;rounded=0;exitX=1;exitY=0.5;exitDx=0;exitDy=0;entryX=0;entryY=0.5;entryDx=0;entryDy=0;" edge="1" parent="1" source="ArgfW7lMdCNn1MuLzISp-48" target="ArgfW7lMdCNn1MuLzISp-51">
          <mxGeometry width="50" height="50" relative="1" as="geometry">
            <mxPoint x="535" y="1215" as="sourcePoint" />
            <mxPoint x="564" y="1125" as="targetPoint" />
            <Array as="points" />
          </mxGeometry>
        </mxCell>
        <mxCell id="ArgfW7lMdCNn1MuLzISp-61" value="" style="endArrow=none;html=1;rounded=0;exitX=1;exitY=0.75;exitDx=0;exitDy=0;entryX=0;entryY=0.5;entryDx=0;entryDy=0;" edge="1" parent="1" source="ArgfW7lMdCNn1MuLzISp-48" target="ArgfW7lMdCNn1MuLzISp-52">
          <mxGeometry width="50" height="50" relative="1" as="geometry">
            <mxPoint x="545" y="1225" as="sourcePoint" />
            <mxPoint x="574" y="1135" as="targetPoint" />
            <Array as="points" />
          </mxGeometry>
        </mxCell>
        <mxCell id="ArgfW7lMdCNn1MuLzISp-62" value="" style="endArrow=none;html=1;rounded=0;exitX=1;exitY=1;exitDx=0;exitDy=0;entryX=0;entryY=0.5;entryDx=0;entryDy=0;" edge="1" parent="1" source="ArgfW7lMdCNn1MuLzISp-48" target="ArgfW7lMdCNn1MuLzISp-53">
          <mxGeometry width="50" height="50" relative="1" as="geometry">
            <mxPoint x="555" y="1235" as="sourcePoint" />
            <mxPoint x="584" y="1145" as="targetPoint" />
            <Array as="points" />
          </mxGeometry>
        </mxCell>
        <mxCell id="ArgfW7lMdCNn1MuLzISp-63" value="" style="endArrow=none;html=1;rounded=0;exitX=1;exitY=1;exitDx=0;exitDy=0;entryX=0;entryY=0.5;entryDx=0;entryDy=0;" edge="1" parent="1" source="ArgfW7lMdCNn1MuLzISp-48" target="ArgfW7lMdCNn1MuLzISp-54">
          <mxGeometry width="50" height="50" relative="1" as="geometry">
            <mxPoint x="565" y="1245" as="sourcePoint" />
            <mxPoint x="594" y="1155" as="targetPoint" />
            <Array as="points" />
          </mxGeometry>
        </mxCell>
        <mxCell id="ArgfW7lMdCNn1MuLzISp-64" value="" style="endArrow=none;html=1;rounded=0;exitX=0.75;exitY=1;exitDx=0;exitDy=0;entryX=0;entryY=0.5;entryDx=0;entryDy=0;" edge="1" parent="1" source="ArgfW7lMdCNn1MuLzISp-48" target="ArgfW7lMdCNn1MuLzISp-55">
          <mxGeometry width="50" height="50" relative="1" as="geometry">
            <mxPoint x="575" y="1255" as="sourcePoint" />
            <mxPoint x="604" y="1165" as="targetPoint" />
            <Array as="points" />
          </mxGeometry>
        </mxCell>
        <mxCell id="ArgfW7lMdCNn1MuLzISp-65" value="" style="endArrow=none;html=1;rounded=0;exitX=0.75;exitY=1;exitDx=0;exitDy=0;entryX=0;entryY=0.5;entryDx=0;entryDy=0;" edge="1" parent="1" source="ArgfW7lMdCNn1MuLzISp-48" target="ArgfW7lMdCNn1MuLzISp-57">
          <mxGeometry width="50" height="50" relative="1" as="geometry">
            <mxPoint x="585" y="1265" as="sourcePoint" />
            <mxPoint x="614" y="1175" as="targetPoint" />
            <Array as="points" />
          </mxGeometry>
        </mxCell>
        <mxCell id="ArgfW7lMdCNn1MuLzISp-67" value="Messages" style="rounded=0;whiteSpace=wrap;html=1;" vertex="1" parent="1">
          <mxGeometry x="192.5" y="1490" width="97" height="40" as="geometry" />
        </mxCell>
        <mxCell id="ArgfW7lMdCNn1MuLzISp-68" value="MessageID" style="ellipse;whiteSpace=wrap;html=1;" vertex="1" parent="1">
          <mxGeometry x="303.5" y="1420" width="90" height="30" as="geometry" />
        </mxCell>
        <mxCell id="ArgfW7lMdCNn1MuLzISp-69" value="SenderID" style="ellipse;whiteSpace=wrap;html=1;" vertex="1" parent="1">
          <mxGeometry x="303.5" y="1460" width="90" height="30" as="geometry" />
        </mxCell>
        <mxCell id="ArgfW7lMdCNn1MuLzISp-70" value="Content" style="ellipse;whiteSpace=wrap;html=1;" vertex="1" parent="1">
          <mxGeometry x="303.5" y="1590" width="90" height="30" as="geometry" />
        </mxCell>
        <mxCell id="ArgfW7lMdCNn1MuLzISp-71" value="ReceiverID" style="ellipse;whiteSpace=wrap;html=1;" vertex="1" parent="1">
          <mxGeometry x="303.5" y="1500" width="90" height="30" as="geometry" />
        </mxCell>
        <mxCell id="ArgfW7lMdCNn1MuLzISp-72" value="ListingID" style="ellipse;whiteSpace=wrap;html=1;" vertex="1" parent="1">
          <mxGeometry x="303.5" y="1545" width="90" height="30" as="geometry" />
        </mxCell>
        <mxCell id="ArgfW7lMdCNn1MuLzISp-73" value="Timestamp" style="ellipse;whiteSpace=wrap;html=1;" vertex="1" parent="1">
          <mxGeometry x="303.5" y="1635" width="90" height="30" as="geometry" />
        </mxCell>
        <mxCell id="ArgfW7lMdCNn1MuLzISp-75" value="" style="endArrow=none;html=1;rounded=0;exitX=1;exitY=0.25;exitDx=0;exitDy=0;entryX=0;entryY=0.5;entryDx=0;entryDy=0;" edge="1" parent="1" source="ArgfW7lMdCNn1MuLzISp-67" target="ArgfW7lMdCNn1MuLzISp-68">
          <mxGeometry width="50" height="50" relative="1" as="geometry">
            <mxPoint x="213.5" y="1510" as="sourcePoint" />
            <mxPoint x="247.5" y="1430" as="targetPoint" />
            <Array as="points" />
          </mxGeometry>
        </mxCell>
        <mxCell id="ArgfW7lMdCNn1MuLzISp-76" value="" style="endArrow=none;html=1;rounded=0;entryX=0;entryY=0.5;entryDx=0;entryDy=0;" edge="1" parent="1" source="ArgfW7lMdCNn1MuLzISp-67" target="ArgfW7lMdCNn1MuLzISp-69">
          <mxGeometry width="50" height="50" relative="1" as="geometry">
            <mxPoint x="280.5" y="1465" as="sourcePoint" />
            <mxPoint x="313.5" y="1445" as="targetPoint" />
            <Array as="points" />
          </mxGeometry>
        </mxCell>
        <mxCell id="ArgfW7lMdCNn1MuLzISp-77" value="" style="endArrow=none;html=1;rounded=0;exitX=1;exitY=0.75;exitDx=0;exitDy=0;entryX=0;entryY=0.5;entryDx=0;entryDy=0;" edge="1" parent="1" source="ArgfW7lMdCNn1MuLzISp-67" target="ArgfW7lMdCNn1MuLzISp-71">
          <mxGeometry width="50" height="50" relative="1" as="geometry">
            <mxPoint x="290.5" y="1475" as="sourcePoint" />
            <mxPoint x="323.5" y="1455" as="targetPoint" />
            <Array as="points" />
          </mxGeometry>
        </mxCell>
        <mxCell id="ArgfW7lMdCNn1MuLzISp-78" value="" style="endArrow=none;html=1;rounded=0;exitX=1;exitY=1;exitDx=0;exitDy=0;entryX=0;entryY=0.5;entryDx=0;entryDy=0;" edge="1" parent="1" source="ArgfW7lMdCNn1MuLzISp-67" target="ArgfW7lMdCNn1MuLzISp-72">
          <mxGeometry width="50" height="50" relative="1" as="geometry">
            <mxPoint x="300.5" y="1485" as="sourcePoint" />
            <mxPoint x="333.5" y="1465" as="targetPoint" />
            <Array as="points" />
          </mxGeometry>
        </mxCell>
        <mxCell id="ArgfW7lMdCNn1MuLzISp-79" value="" style="endArrow=none;html=1;rounded=0;exitX=0.75;exitY=1;exitDx=0;exitDy=0;entryX=0;entryY=0.5;entryDx=0;entryDy=0;" edge="1" parent="1" source="ArgfW7lMdCNn1MuLzISp-67" target="ArgfW7lMdCNn1MuLzISp-70">
          <mxGeometry width="50" height="50" relative="1" as="geometry">
            <mxPoint x="280.5" y="1495" as="sourcePoint" />
            <mxPoint x="313.5" y="1570" as="targetPoint" />
            <Array as="points" />
          </mxGeometry>
        </mxCell>
        <mxCell id="ArgfW7lMdCNn1MuLzISp-80" value="" style="endArrow=none;html=1;rounded=0;exitX=0.863;exitY=0.956;exitDx=0;exitDy=0;entryX=0;entryY=0.5;entryDx=0;entryDy=0;exitPerimeter=0;" edge="1" parent="1" source="ArgfW7lMdCNn1MuLzISp-67" target="ArgfW7lMdCNn1MuLzISp-73">
          <mxGeometry width="50" height="50" relative="1" as="geometry">
            <mxPoint x="290.5" y="1505" as="sourcePoint" />
            <mxPoint x="323.5" y="1580" as="targetPoint" />
            <Array as="points" />
          </mxGeometry>
        </mxCell>
        <mxCell id="ArgfW7lMdCNn1MuLzISp-82" value="Transactions" style="rounded=0;whiteSpace=wrap;html=1;" vertex="1" parent="1">
          <mxGeometry x="980" y="945" width="97" height="40" as="geometry" />
        </mxCell>
        <mxCell id="ArgfW7lMdCNn1MuLzISp-84" value="&lt;code&gt;TransactionID&lt;/code&gt;" style="ellipse;whiteSpace=wrap;html=1;" vertex="1" parent="1">
          <mxGeometry x="1120" y="870" width="90" height="30" as="geometry" />
        </mxCell>
        <mxCell id="ArgfW7lMdCNn1MuLzISp-85" value="" style="endArrow=none;html=1;rounded=0;entryX=0;entryY=0.5;entryDx=0;entryDy=0;" edge="1" parent="1" source="ArgfW7lMdCNn1MuLzISp-82" target="ArgfW7lMdCNn1MuLzISp-84">
          <mxGeometry width="50" height="50" relative="1" as="geometry">
            <mxPoint x="1180" y="1050" as="sourcePoint" />
            <mxPoint x="1229" y="990" as="targetPoint" />
            <Array as="points" />
          </mxGeometry>
        </mxCell>
        <mxCell id="ArgfW7lMdCNn1MuLzISp-86" value="&lt;code&gt;SellerID&lt;/code&gt;" style="ellipse;whiteSpace=wrap;html=1;" vertex="1" parent="1">
          <mxGeometry x="1120" y="940" width="90" height="30" as="geometry" />
        </mxCell>
        <mxCell id="ArgfW7lMdCNn1MuLzISp-88" value="&lt;code&gt;BuyerID&lt;/code&gt;" style="ellipse;whiteSpace=wrap;html=1;" vertex="1" parent="1">
          <mxGeometry x="1120" y="905" width="90" height="30" as="geometry" />
        </mxCell>
        <mxCell id="ArgfW7lMdCNn1MuLzISp-89" value="&lt;code&gt;ListingID&lt;/code&gt;" style="ellipse;whiteSpace=wrap;html=1;" vertex="1" parent="1">
          <mxGeometry x="1120" y="979" width="90" height="30" as="geometry" />
        </mxCell>
        <mxCell id="ArgfW7lMdCNn1MuLzISp-90" value="&lt;code&gt;Amount&lt;/code&gt;" style="ellipse;whiteSpace=wrap;html=1;" vertex="1" parent="1">
          <mxGeometry x="1120" y="1075" width="90" height="30" as="geometry" />
        </mxCell>
        <mxCell id="ArgfW7lMdCNn1MuLzISp-91" value="" style="endArrow=none;html=1;rounded=0;entryX=0;entryY=0.5;entryDx=0;entryDy=0;exitX=1;exitY=0.5;exitDx=0;exitDy=0;" edge="1" parent="1" source="ArgfW7lMdCNn1MuLzISp-82" target="ArgfW7lMdCNn1MuLzISp-88">
          <mxGeometry width="50" height="50" relative="1" as="geometry">
            <mxPoint x="1157" y="1064" as="sourcePoint" />
            <mxPoint x="1240" y="1055" as="targetPoint" />
            <Array as="points" />
          </mxGeometry>
        </mxCell>
        <mxCell id="ArgfW7lMdCNn1MuLzISp-92" value="" style="endArrow=none;html=1;rounded=0;entryX=0;entryY=0.5;entryDx=0;entryDy=0;exitX=1;exitY=0.75;exitDx=0;exitDy=0;" edge="1" parent="1" source="ArgfW7lMdCNn1MuLzISp-82" target="ArgfW7lMdCNn1MuLzISp-86">
          <mxGeometry width="50" height="50" relative="1" as="geometry">
            <mxPoint x="1167" y="1074" as="sourcePoint" />
            <mxPoint x="1250" y="1065" as="targetPoint" />
            <Array as="points" />
          </mxGeometry>
        </mxCell>
        <mxCell id="ArgfW7lMdCNn1MuLzISp-93" value="" style="endArrow=none;html=1;rounded=0;entryX=0;entryY=0.5;entryDx=0;entryDy=0;exitX=0.928;exitY=0.956;exitDx=0;exitDy=0;exitPerimeter=0;" edge="1" parent="1" source="ArgfW7lMdCNn1MuLzISp-82" target="ArgfW7lMdCNn1MuLzISp-89">
          <mxGeometry width="50" height="50" relative="1" as="geometry">
            <mxPoint x="1177" y="1084" as="sourcePoint" />
            <mxPoint x="1260" y="1075" as="targetPoint" />
            <Array as="points" />
          </mxGeometry>
        </mxCell>
        <mxCell id="ArgfW7lMdCNn1MuLzISp-94" value="" style="endArrow=none;html=1;rounded=0;entryX=0;entryY=0.5;entryDx=0;entryDy=0;exitX=0.75;exitY=1;exitDx=0;exitDy=0;" edge="1" parent="1" source="ArgfW7lMdCNn1MuLzISp-82" target="ArgfW7lMdCNn1MuLzISp-90">
          <mxGeometry width="50" height="50" relative="1" as="geometry">
            <mxPoint x="1187" y="1094" as="sourcePoint" />
            <mxPoint x="1270" y="1085" as="targetPoint" />
            <Array as="points" />
          </mxGeometry>
        </mxCell>
        <mxCell id="ArgfW7lMdCNn1MuLzISp-95" value="&lt;code&gt;TransactionDate&lt;/code&gt;" style="ellipse;whiteSpace=wrap;html=1;" vertex="1" parent="1">
          <mxGeometry x="1120" y="1025" width="129" height="35" as="geometry" />
        </mxCell>
        <mxCell id="ArgfW7lMdCNn1MuLzISp-96" value="" style="endArrow=none;html=1;rounded=0;entryX=0;entryY=0.5;entryDx=0;entryDy=0;exitX=1;exitY=0.75;exitDx=0;exitDy=0;" edge="1" parent="1" source="ArgfW7lMdCNn1MuLzISp-82" target="ArgfW7lMdCNn1MuLzISp-95">
          <mxGeometry width="50" height="50" relative="1" as="geometry">
            <mxPoint x="1133" y="1090" as="sourcePoint" />
            <mxPoint x="1240" y="1260" as="targetPoint" />
            <Array as="points" />
          </mxGeometry>
        </mxCell>
        <mxCell id="ArgfW7lMdCNn1MuLzISp-98" value="&lt;strong&gt;Reviews&lt;/strong&gt;" style="rounded=0;whiteSpace=wrap;html=1;" vertex="1" parent="1">
          <mxGeometry x="963" y="1327.5" width="97" height="40" as="geometry" />
        </mxCell>
        <mxCell id="ArgfW7lMdCNn1MuLzISp-99" value="" style="endArrow=none;html=1;rounded=0;entryX=0;entryY=0.5;entryDx=0;entryDy=0;" edge="1" parent="1" source="ArgfW7lMdCNn1MuLzISp-98" target="ArgfW7lMdCNn1MuLzISp-100">
          <mxGeometry width="50" height="50" relative="1" as="geometry">
            <mxPoint x="1103" y="1282.5" as="sourcePoint" />
            <mxPoint x="1108.9999999999995" y="1277.5" as="targetPoint" />
            <Array as="points" />
          </mxGeometry>
        </mxCell>
        <mxCell id="ArgfW7lMdCNn1MuLzISp-100" value="&lt;code&gt;ReviewID&lt;/code&gt;" style="ellipse;whiteSpace=wrap;html=1;" vertex="1" parent="1">
          <mxGeometry x="1109" y="1260" width="90" height="30" as="geometry" />
        </mxCell>
        <mxCell id="ArgfW7lMdCNn1MuLzISp-101" value="&lt;code&gt;Rating&lt;/code&gt;" style="ellipse;whiteSpace=wrap;html=1;" vertex="1" parent="1">
          <mxGeometry x="1109" y="1382.5" width="90" height="30" as="geometry" />
        </mxCell>
        <mxCell id="ArgfW7lMdCNn1MuLzISp-102" value="&lt;code&gt;TransactionID&lt;/code&gt;" style="ellipse;whiteSpace=wrap;html=1;" vertex="1" parent="1">
          <mxGeometry x="1109" y="1342.5" width="90" height="30" as="geometry" />
        </mxCell>
        <mxCell id="ArgfW7lMdCNn1MuLzISp-103" value="&lt;code&gt;UserID&lt;/code&gt;" style="ellipse;whiteSpace=wrap;html=1;" vertex="1" parent="1">
          <mxGeometry x="1109" y="1302.5" width="90" height="30" as="geometry" />
        </mxCell>
        <mxCell id="ArgfW7lMdCNn1MuLzISp-104" value="&lt;code&gt;Comment&lt;/code&gt;" style="ellipse;whiteSpace=wrap;html=1;" vertex="1" parent="1">
          <mxGeometry x="1109" y="1422.5" width="90" height="30" as="geometry" />
        </mxCell>
        <mxCell id="ArgfW7lMdCNn1MuLzISp-105" value="" style="endArrow=none;html=1;rounded=0;entryX=0;entryY=0.5;entryDx=0;entryDy=0;exitX=1;exitY=0.5;exitDx=0;exitDy=0;" edge="1" parent="1" source="ArgfW7lMdCNn1MuLzISp-98" target="ArgfW7lMdCNn1MuLzISp-103">
          <mxGeometry width="50" height="50" relative="1" as="geometry">
            <mxPoint x="1070" y="1295.5" as="sourcePoint" />
            <mxPoint x="1119" y="1287.5" as="targetPoint" />
            <Array as="points" />
          </mxGeometry>
        </mxCell>
        <mxCell id="ArgfW7lMdCNn1MuLzISp-106" value="" style="endArrow=none;html=1;rounded=0;entryX=0;entryY=0.5;entryDx=0;entryDy=0;exitX=0.994;exitY=0.886;exitDx=0;exitDy=0;exitPerimeter=0;" edge="1" parent="1" source="ArgfW7lMdCNn1MuLzISp-98" target="ArgfW7lMdCNn1MuLzISp-102">
          <mxGeometry width="50" height="50" relative="1" as="geometry">
            <mxPoint x="1080" y="1305.5" as="sourcePoint" />
            <mxPoint x="1129" y="1297.5" as="targetPoint" />
            <Array as="points" />
          </mxGeometry>
        </mxCell>
        <mxCell id="ArgfW7lMdCNn1MuLzISp-107" value="" style="endArrow=none;html=1;rounded=0;entryX=0;entryY=0.5;entryDx=0;entryDy=0;exitX=0.957;exitY=1.011;exitDx=0;exitDy=0;exitPerimeter=0;" edge="1" parent="1" source="ArgfW7lMdCNn1MuLzISp-98" target="ArgfW7lMdCNn1MuLzISp-101">
          <mxGeometry width="50" height="50" relative="1" as="geometry">
            <mxPoint x="1090" y="1315.5" as="sourcePoint" />
            <mxPoint x="1139" y="1307.5" as="targetPoint" />
            <Array as="points" />
          </mxGeometry>
        </mxCell>
        <mxCell id="ArgfW7lMdCNn1MuLzISp-108" value="" style="endArrow=none;html=1;rounded=0;entryX=0.06;entryY=0.657;entryDx=0;entryDy=0;exitX=0.928;exitY=1;exitDx=0;exitDy=0;exitPerimeter=0;entryPerimeter=0;" edge="1" parent="1" source="ArgfW7lMdCNn1MuLzISp-98" target="ArgfW7lMdCNn1MuLzISp-104">
          <mxGeometry width="50" height="50" relative="1" as="geometry">
            <mxPoint x="1100" y="1325.5" as="sourcePoint" />
            <mxPoint x="1149" y="1317.5" as="targetPoint" />
            <Array as="points" />
          </mxGeometry>
        </mxCell>
        <mxCell id="ArgfW7lMdCNn1MuLzISp-110" value="&lt;strong&gt;Favorites&lt;/strong&gt;" style="rounded=0;whiteSpace=wrap;html=1;" vertex="1" parent="1">
          <mxGeometry x="970" y="1520" width="97" height="40" as="geometry" />
        </mxCell>
        <mxCell id="ArgfW7lMdCNn1MuLzISp-111" value="&lt;code&gt;FavoriteID&lt;/code&gt;" style="ellipse;whiteSpace=wrap;html=1;" vertex="1" parent="1">
          <mxGeometry x="1118.5" y="1520" width="90" height="30" as="geometry" />
        </mxCell>
        <mxCell id="ArgfW7lMdCNn1MuLzISp-112" value="" style="endArrow=none;html=1;rounded=0;entryX=0;entryY=0.5;entryDx=0;entryDy=0;exitX=1;exitY=0.25;exitDx=0;exitDy=0;" edge="1" parent="1" source="ArgfW7lMdCNn1MuLzISp-110" target="ArgfW7lMdCNn1MuLzISp-111">
          <mxGeometry width="50" height="50" relative="1" as="geometry">
            <mxPoint x="1088.5" y="1510" as="sourcePoint" />
            <mxPoint x="1141.5" y="1540" as="targetPoint" />
            <Array as="points" />
          </mxGeometry>
        </mxCell>
        <mxCell id="ArgfW7lMdCNn1MuLzISp-113" value="&lt;code&gt;UserID&lt;/code&gt;" style="ellipse;whiteSpace=wrap;html=1;" vertex="1" parent="1">
          <mxGeometry x="1118.5" y="1560" width="90" height="30" as="geometry" />
        </mxCell>
        <mxCell id="ArgfW7lMdCNn1MuLzISp-114" value="&lt;code&gt;ListingID&lt;/code&gt;" style="ellipse;whiteSpace=wrap;html=1;" vertex="1" parent="1">
          <mxGeometry x="1118.5" y="1600" width="90" height="30" as="geometry" />
        </mxCell>
        <mxCell id="ArgfW7lMdCNn1MuLzISp-115" value="" style="endArrow=none;html=1;rounded=0;entryX=0;entryY=0.5;entryDx=0;entryDy=0;exitX=1;exitY=0.5;exitDx=0;exitDy=0;" edge="1" parent="1" source="ArgfW7lMdCNn1MuLzISp-110" target="ArgfW7lMdCNn1MuLzISp-113">
          <mxGeometry width="50" height="50" relative="1" as="geometry">
            <mxPoint x="1077.5" y="1540" as="sourcePoint" />
            <mxPoint x="1128.5" y="1545" as="targetPoint" />
            <Array as="points" />
          </mxGeometry>
        </mxCell>
        <mxCell id="ArgfW7lMdCNn1MuLzISp-116" value="" style="endArrow=none;html=1;rounded=0;entryX=0;entryY=0.5;entryDx=0;entryDy=0;exitX=1;exitY=1;exitDx=0;exitDy=0;" edge="1" parent="1" source="ArgfW7lMdCNn1MuLzISp-110" target="ArgfW7lMdCNn1MuLzISp-114">
          <mxGeometry width="50" height="50" relative="1" as="geometry">
            <mxPoint x="1087.5" y="1550" as="sourcePoint" />
            <mxPoint x="1138.5" y="1555" as="targetPoint" />
            <Array as="points" />
          </mxGeometry>
        </mxCell>
        <mxCell id="ArgfW7lMdCNn1MuLzISp-117" value="UserRoles" style="shape=ext;margin=3;double=1;whiteSpace=wrap;html=1;align=center;" vertex="1" parent="1">
          <mxGeometry x="96.25" y="780" width="103.5" height="45" as="geometry" />
        </mxCell>
        <mxCell id="ArgfW7lMdCNn1MuLzISp-118" value="Has" style="rhombus;whiteSpace=wrap;html=1;" vertex="1" parent="1">
          <mxGeometry x="111.25" y="885" width="60" height="60" as="geometry" />
        </mxCell>
        <mxCell id="ArgfW7lMdCNn1MuLzISp-119" value="" style="endArrow=none;html=1;rounded=0;exitX=0.5;exitY=1;exitDx=0;exitDy=0;entryX=0.5;entryY=0;entryDx=0;entryDy=0;" edge="1" parent="1" source="ArgfW7lMdCNn1MuLzISp-118" target="ArgfW7lMdCNn1MuLzISp-22">
          <mxGeometry width="50" height="50" relative="1" as="geometry">
            <mxPoint x="258" y="980" as="sourcePoint" />
            <mxPoint x="197" y="1020" as="targetPoint" />
          </mxGeometry>
        </mxCell>
        <mxCell id="ArgfW7lMdCNn1MuLzISp-120" value="" style="endArrow=none;html=1;rounded=0;exitX=0.411;exitY=0.933;exitDx=0;exitDy=0;entryX=0.5;entryY=0;entryDx=0;entryDy=0;exitPerimeter=0;" edge="1" parent="1" source="ArgfW7lMdCNn1MuLzISp-117" target="ArgfW7lMdCNn1MuLzISp-118">
          <mxGeometry width="50" height="50" relative="1" as="geometry">
            <mxPoint x="268" y="990" as="sourcePoint" />
            <mxPoint x="207" y="1030" as="targetPoint" />
          </mxGeometry>
        </mxCell>
        <mxCell id="ArgfW7lMdCNn1MuLzISp-121" value="M" style="text;html=1;align=center;verticalAlign=middle;whiteSpace=wrap;rounded=0;" vertex="1" parent="1">
          <mxGeometry x="118" y="965" width="20" height="10" as="geometry" />
        </mxCell>
        <mxCell id="ArgfW7lMdCNn1MuLzISp-122" value="1" style="text;html=1;align=center;verticalAlign=middle;whiteSpace=wrap;rounded=0;" vertex="1" parent="1">
          <mxGeometry x="123" y="840" width="10" height="10" as="geometry" />
        </mxCell>
        <mxCell id="ArgfW7lMdCNn1MuLzISp-123" value="Belongs to" style="rhombus;whiteSpace=wrap;html=1;" vertex="1" parent="1">
          <mxGeometry x="424" y="1050" width="96" height="60" as="geometry" />
        </mxCell>
        <mxCell id="ArgfW7lMdCNn1MuLzISp-124" value="" style="endArrow=none;html=1;rounded=0;entryX=0.5;entryY=1;entryDx=0;entryDy=0;exitX=0.5;exitY=0;exitDx=0;exitDy=0;" edge="1" parent="1" source="ArgfW7lMdCNn1MuLzISp-48" target="ArgfW7lMdCNn1MuLzISp-123">
          <mxGeometry width="50" height="50" relative="1" as="geometry">
            <mxPoint x="470" y="1180" as="sourcePoint" />
            <mxPoint x="554" y="1115" as="targetPoint" />
            <Array as="points" />
          </mxGeometry>
        </mxCell>
        <mxCell id="ArgfW7lMdCNn1MuLzISp-125" value="" style="endArrow=none;html=1;rounded=0;exitX=0.5;exitY=0;exitDx=0;exitDy=0;" edge="1" parent="1" source="ArgfW7lMdCNn1MuLzISp-123" target="ArgfW7lMdCNn1MuLzISp-39">
          <mxGeometry width="50" height="50" relative="1" as="geometry">
            <mxPoint x="530" y="1205" as="sourcePoint" />
            <mxPoint x="480" y="986" as="targetPoint" />
            <Array as="points" />
          </mxGeometry>
        </mxCell>
        <mxCell id="ArgfW7lMdCNn1MuLzISp-126" value="M" style="text;html=1;align=center;verticalAlign=middle;whiteSpace=wrap;rounded=0;" vertex="1" parent="1">
          <mxGeometry x="441.5" y="1160" width="20" height="10" as="geometry" />
        </mxCell>
        <mxCell id="ArgfW7lMdCNn1MuLzISp-127" value="1" style="text;html=1;align=center;verticalAlign=middle;whiteSpace=wrap;rounded=0;" vertex="1" parent="1">
          <mxGeometry x="451.5" y="995" width="10" height="10" as="geometry" />
        </mxCell>
        <mxCell id="ArgfW7lMdCNn1MuLzISp-128" value="Posts" style="rhombus;whiteSpace=wrap;html=1;" vertex="1" parent="1">
          <mxGeometry x="281" y="1305" width="96" height="60" as="geometry" />
        </mxCell>
        <mxCell id="ArgfW7lMdCNn1MuLzISp-129" value="" style="endArrow=none;html=1;rounded=0;entryX=0.5;entryY=1;entryDx=0;entryDy=0;exitX=0;exitY=0.5;exitDx=0;exitDy=0;" edge="1" parent="1" source="ArgfW7lMdCNn1MuLzISp-128" target="ArgfW7lMdCNn1MuLzISp-22">
          <mxGeometry width="50" height="50" relative="1" as="geometry">
            <mxPoint x="241" y="1233" as="sourcePoint" />
            <mxPoint x="176" y="1035" as="targetPoint" />
            <Array as="points">
              <mxPoint x="150" y="1340" />
            </Array>
          </mxGeometry>
        </mxCell>
        <mxCell id="ArgfW7lMdCNn1MuLzISp-130" value="" style="endArrow=none;html=1;rounded=0;exitX=0.394;exitY=1.112;exitDx=0;exitDy=0;entryX=1;entryY=0.5;entryDx=0;entryDy=0;exitPerimeter=0;" edge="1" parent="1" source="ArgfW7lMdCNn1MuLzISp-48" target="ArgfW7lMdCNn1MuLzISp-128">
          <mxGeometry width="50" height="50" relative="1" as="geometry">
            <mxPoint x="485" y="1239" as="sourcePoint" />
            <mxPoint x="554" y="1395" as="targetPoint" />
            <Array as="points">
              <mxPoint x="450" y="1335" />
            </Array>
          </mxGeometry>
        </mxCell>
        <mxCell id="ArgfW7lMdCNn1MuLzISp-131" value="1" style="text;html=1;align=center;verticalAlign=middle;whiteSpace=wrap;rounded=0;" vertex="1" parent="1">
          <mxGeometry x="134.25" y="1015" width="37" height="57.5" as="geometry" />
        </mxCell>
        <mxCell id="ArgfW7lMdCNn1MuLzISp-134" value="M" style="text;html=1;align=center;verticalAlign=middle;whiteSpace=wrap;rounded=0;" vertex="1" parent="1">
          <mxGeometry x="431.5" y="1235" width="20" height="30" as="geometry" />
        </mxCell>
        <mxCell id="ArgfW7lMdCNn1MuLzISp-135" value="" style="endArrow=none;html=1;rounded=0;entryX=0;entryY=1;entryDx=0;entryDy=0;" edge="1" parent="1" target="ArgfW7lMdCNn1MuLzISp-22">
          <mxGeometry width="50" height="50" relative="1" as="geometry">
            <mxPoint x="60" y="1520" as="sourcePoint" />
            <mxPoint x="90" y="1000" as="targetPoint" />
            <Array as="points">
              <mxPoint x="-40" y="1520" />
              <mxPoint x="-40" y="1380" />
              <mxPoint x="-40" y="1030" />
            </Array>
          </mxGeometry>
        </mxCell>
        <mxCell id="ArgfW7lMdCNn1MuLzISp-136" value="Sends" style="rhombus;whiteSpace=wrap;html=1;" vertex="1" parent="1">
          <mxGeometry x="60" y="1490" width="96" height="60" as="geometry" />
        </mxCell>
        <mxCell id="ArgfW7lMdCNn1MuLzISp-137" value="" style="endArrow=none;html=1;rounded=0;exitX=0;exitY=0.75;exitDx=0;exitDy=0;entryX=1;entryY=0.5;entryDx=0;entryDy=0;" edge="1" parent="1" source="ArgfW7lMdCNn1MuLzISp-67" target="ArgfW7lMdCNn1MuLzISp-136">
          <mxGeometry width="50" height="50" relative="1" as="geometry">
            <mxPoint x="286" y="1538" as="sourcePoint" />
            <mxPoint x="313" y="1660" as="targetPoint" />
            <Array as="points" />
          </mxGeometry>
        </mxCell>
        <mxCell id="ArgfW7lMdCNn1MuLzISp-138" value="Receives" style="rhombus;whiteSpace=wrap;html=1;" vertex="1" parent="1">
          <mxGeometry x="60" y="1560" width="96" height="60" as="geometry" />
        </mxCell>
        <mxCell id="ArgfW7lMdCNn1MuLzISp-139" value="" style="endArrow=none;html=1;rounded=0;exitX=0.25;exitY=1;exitDx=0;exitDy=0;entryX=1;entryY=0.5;entryDx=0;entryDy=0;" edge="1" parent="1" source="ArgfW7lMdCNn1MuLzISp-67" target="ArgfW7lMdCNn1MuLzISp-138">
          <mxGeometry width="50" height="50" relative="1" as="geometry">
            <mxPoint x="203" y="1530" as="sourcePoint" />
            <mxPoint x="166" y="1530" as="targetPoint" />
            <Array as="points">
              <mxPoint x="217" y="1590" />
            </Array>
          </mxGeometry>
        </mxCell>
        <mxCell id="ArgfW7lMdCNn1MuLzISp-140" value="" style="endArrow=none;html=1;rounded=0;entryX=0;entryY=0.25;entryDx=0;entryDy=0;exitX=0;exitY=0.5;exitDx=0;exitDy=0;" edge="1" parent="1" source="ArgfW7lMdCNn1MuLzISp-138" target="ArgfW7lMdCNn1MuLzISp-22">
          <mxGeometry width="50" height="50" relative="1" as="geometry">
            <mxPoint x="10" y="1499" as="sourcePoint" />
            <mxPoint x="43" y="984" as="targetPoint" />
            <Array as="points">
              <mxPoint x="-90" y="1590" />
              <mxPoint x="-90" y="1499" />
              <mxPoint x="-90" y="1359" />
              <mxPoint x="-90" y="1000" />
            </Array>
          </mxGeometry>
        </mxCell>
        <mxCell id="ArgfW7lMdCNn1MuLzISp-141" value="M" style="text;html=1;align=center;verticalAlign=middle;whiteSpace=wrap;rounded=0;" vertex="1" parent="1">
          <mxGeometry x="168" y="1490" width="20" height="30" as="geometry" />
        </mxCell>
        <mxCell id="ArgfW7lMdCNn1MuLzISp-142" value="M" style="text;html=1;align=center;verticalAlign=middle;whiteSpace=wrap;rounded=0;" vertex="1" parent="1">
          <mxGeometry x="192.5" y="1530" width="20" height="30" as="geometry" />
        </mxCell>
        <mxCell id="ArgfW7lMdCNn1MuLzISp-143" value="1" style="text;html=1;align=center;verticalAlign=middle;whiteSpace=wrap;rounded=0;" vertex="1" parent="1">
          <mxGeometry x="64" y="1010" width="10" height="5" as="geometry" />
        </mxCell>
        <mxCell id="ArgfW7lMdCNn1MuLzISp-144" value="1" style="text;html=1;align=center;verticalAlign=middle;whiteSpace=wrap;rounded=0;" vertex="1" parent="1">
          <mxGeometry x="64" y="979" width="10" height="5" as="geometry" />
        </mxCell>
        <mxCell id="ArgfW7lMdCNn1MuLzISp-147" value="" style="endArrow=none;html=1;rounded=0;entryX=0.66;entryY=0.019;entryDx=0;entryDy=0;entryPerimeter=0;" edge="1" parent="1" target="ArgfW7lMdCNn1MuLzISp-22">
          <mxGeometry width="50" height="50" relative="1" as="geometry">
            <mxPoint x="800" y="860" as="sourcePoint" />
            <mxPoint x="200" y="1005" as="targetPoint" />
            <Array as="points">
              <mxPoint x="640" y="860" />
              <mxPoint x="220" y="880" />
              <mxPoint x="210" y="940" />
            </Array>
          </mxGeometry>
        </mxCell>
        <mxCell id="ArgfW7lMdCNn1MuLzISp-148" value="" style="endArrow=none;html=1;rounded=0;entryX=1;entryY=0;entryDx=0;entryDy=0;exitX=0;exitY=0.5;exitDx=0;exitDy=0;" edge="1" parent="1" source="ArgfW7lMdCNn1MuLzISp-150" target="ArgfW7lMdCNn1MuLzISp-22">
          <mxGeometry width="50" height="50" relative="1" as="geometry">
            <mxPoint x="820" y="910" as="sourcePoint" />
            <mxPoint x="176" y="995" as="targetPoint" />
            <Array as="points">
              <mxPoint x="720" y="910" />
              <mxPoint x="660" y="910" />
              <mxPoint x="460" y="910" />
              <mxPoint x="290" y="920" />
              <mxPoint x="270" y="980" />
            </Array>
          </mxGeometry>
        </mxCell>
        <mxCell id="ArgfW7lMdCNn1MuLzISp-149" value="Buys" style="rhombus;whiteSpace=wrap;html=1;" vertex="1" parent="1">
          <mxGeometry x="800" y="830" width="96" height="60" as="geometry" />
        </mxCell>
        <mxCell id="ArgfW7lMdCNn1MuLzISp-150" value="Sells" style="rhombus;whiteSpace=wrap;html=1;" vertex="1" parent="1">
          <mxGeometry x="780" y="920" width="96" height="60" as="geometry" />
        </mxCell>
        <mxCell id="ArgfW7lMdCNn1MuLzISp-151" value="" style="endArrow=none;html=1;rounded=0;entryX=0;entryY=0.75;entryDx=0;entryDy=0;" edge="1" parent="1" target="ArgfW7lMdCNn1MuLzISp-82">
          <mxGeometry width="50" height="50" relative="1" as="geometry">
            <mxPoint x="870" y="948" as="sourcePoint" />
            <mxPoint x="970" y="971" as="targetPoint" />
            <Array as="points" />
          </mxGeometry>
        </mxCell>
        <mxCell id="ArgfW7lMdCNn1MuLzISp-152" value="" style="endArrow=none;html=1;rounded=0;entryX=0;entryY=0;entryDx=0;entryDy=0;exitX=1;exitY=0.5;exitDx=0;exitDy=0;" edge="1" parent="1" source="ArgfW7lMdCNn1MuLzISp-149" target="ArgfW7lMdCNn1MuLzISp-82">
          <mxGeometry width="50" height="50" relative="1" as="geometry">
            <mxPoint x="900" y="860" as="sourcePoint" />
            <mxPoint x="1130" y="1004" as="targetPoint" />
            <Array as="points" />
          </mxGeometry>
        </mxCell>
        <mxCell id="ArgfW7lMdCNn1MuLzISp-153" value="M" style="text;html=1;align=center;verticalAlign=middle;whiteSpace=wrap;rounded=0;" vertex="1" parent="1">
          <mxGeometry x="950" y="980" width="20" height="10" as="geometry" />
        </mxCell>
        <mxCell id="ArgfW7lMdCNn1MuLzISp-154" value="M" style="text;html=1;align=center;verticalAlign=middle;whiteSpace=wrap;rounded=0;" vertex="1" parent="1">
          <mxGeometry x="940" y="930" width="20" height="10" as="geometry" />
        </mxCell>
        <mxCell id="ArgfW7lMdCNn1MuLzISp-155" value="1" style="text;html=1;align=center;verticalAlign=middle;whiteSpace=wrap;rounded=0;" vertex="1" parent="1">
          <mxGeometry x="192.5" y="930" width="10" height="5" as="geometry" />
        </mxCell>
        <mxCell id="ArgfW7lMdCNn1MuLzISp-156" value="1" style="text;html=1;align=center;verticalAlign=middle;whiteSpace=wrap;rounded=0;" vertex="1" parent="1">
          <mxGeometry x="253" y="962.5" width="10" height="5" as="geometry" />
        </mxCell>
        <mxCell id="ArgfW7lMdCNn1MuLzISp-157" value="" style="endArrow=none;html=1;rounded=0;exitX=0.75;exitY=0;exitDx=0;exitDy=0;" edge="1" parent="1" source="ArgfW7lMdCNn1MuLzISp-48">
          <mxGeometry width="50" height="50" relative="1" as="geometry">
            <mxPoint x="525" y="1200" as="sourcePoint" />
            <mxPoint x="770" y="1130" as="targetPoint" />
            <Array as="points">
              <mxPoint x="520" y="1150" />
            </Array>
          </mxGeometry>
        </mxCell>
        <mxCell id="ArgfW7lMdCNn1MuLzISp-158" value="Has" style="rhombus;whiteSpace=wrap;html=1;" vertex="1" parent="1">
          <mxGeometry x="769" y="1100" width="96" height="60" as="geometry" />
        </mxCell>
        <mxCell id="ArgfW7lMdCNn1MuLzISp-159" value="" style="endArrow=none;html=1;rounded=0;exitX=1;exitY=0.5;exitDx=0;exitDy=0;entryX=0.353;entryY=0.987;entryDx=0;entryDy=0;entryPerimeter=0;" edge="1" parent="1" source="ArgfW7lMdCNn1MuLzISp-158" target="ArgfW7lMdCNn1MuLzISp-82">
          <mxGeometry width="50" height="50" relative="1" as="geometry">
            <mxPoint x="880" y="958" as="sourcePoint" />
            <mxPoint x="1000" y="1120" as="targetPoint" />
            <Array as="points">
              <mxPoint x="1010" y="1120" />
            </Array>
          </mxGeometry>
        </mxCell>
        <mxCell id="ArgfW7lMdCNn1MuLzISp-160" value="M" style="text;html=1;align=center;verticalAlign=middle;whiteSpace=wrap;rounded=0;" vertex="1" parent="1">
          <mxGeometry x="1018.5" y="995" width="20" height="10" as="geometry" />
        </mxCell>
        <mxCell id="ArgfW7lMdCNn1MuLzISp-161" value="1" style="text;html=1;align=center;verticalAlign=middle;whiteSpace=wrap;rounded=0;" vertex="1" parent="1">
          <mxGeometry x="524" y="1154" width="10" height="10" as="geometry" />
        </mxCell>
        <mxCell id="ArgfW7lMdCNn1MuLzISp-162" value="" style="endArrow=none;html=1;rounded=0;entryX=0.896;entryY=1.008;entryDx=0;entryDy=0;entryPerimeter=0;exitX=1;exitY=0.5;exitDx=0;exitDy=0;" edge="1" parent="1" source="ArgfW7lMdCNn1MuLzISp-163" target="ArgfW7lMdCNn1MuLzISp-82">
          <mxGeometry width="50" height="50" relative="1" as="geometry">
            <mxPoint x="1050" y="1230" as="sourcePoint" />
            <mxPoint x="1024" y="994" as="targetPoint" />
            <Array as="points">
              <mxPoint x="1050" y="1160" />
              <mxPoint x="1070" y="1090" />
            </Array>
          </mxGeometry>
        </mxCell>
        <mxCell id="ArgfW7lMdCNn1MuLzISp-163" value="Is reviewed by" style="rhombus;whiteSpace=wrap;html=1;" vertex="1" parent="1">
          <mxGeometry x="890" y="1180" width="123" height="60" as="geometry" />
        </mxCell>
        <mxCell id="ArgfW7lMdCNn1MuLzISp-164" value="" style="endArrow=none;html=1;rounded=0;entryX=0.5;entryY=1;entryDx=0;entryDy=0;exitX=0;exitY=0;exitDx=0;exitDy=0;" edge="1" parent="1" source="ArgfW7lMdCNn1MuLzISp-98" target="ArgfW7lMdCNn1MuLzISp-163">
          <mxGeometry width="50" height="50" relative="1" as="geometry">
            <mxPoint x="1099" y="1310" as="sourcePoint" />
            <mxPoint x="1169" y="1260" as="targetPoint" />
            <Array as="points" />
          </mxGeometry>
        </mxCell>
        <mxCell id="ArgfW7lMdCNn1MuLzISp-165" value="M" style="text;html=1;align=center;verticalAlign=middle;whiteSpace=wrap;rounded=0;" vertex="1" parent="1">
          <mxGeometry x="960" y="1307.5" width="20" height="10" as="geometry" />
        </mxCell>
        <mxCell id="ArgfW7lMdCNn1MuLzISp-166" value="1" style="text;html=1;align=center;verticalAlign=middle;whiteSpace=wrap;rounded=0;" vertex="1" parent="1">
          <mxGeometry x="1056.5" y="1085" width="10" height="10" as="geometry" />
        </mxCell>
        <mxCell id="ArgfW7lMdCNn1MuLzISp-167" value="" style="endArrow=none;html=1;rounded=0;entryX=0.25;entryY=1;entryDx=0;entryDy=0;exitX=0.5;exitY=1;exitDx=0;exitDy=0;" edge="1" parent="1" source="ArgfW7lMdCNn1MuLzISp-173" target="ArgfW7lMdCNn1MuLzISp-22">
          <mxGeometry width="50" height="50" relative="1" as="geometry">
            <mxPoint x="650" y="1830" as="sourcePoint" />
            <mxPoint x="103" y="1035" as="targetPoint" />
            <Array as="points">
              <mxPoint x="790" y="1860" />
              <mxPoint x="-10" y="1830" />
              <mxPoint x="10" y="1390" />
              <mxPoint x="20" y="1130" />
            </Array>
          </mxGeometry>
        </mxCell>
        <mxCell id="ArgfW7lMdCNn1MuLzISp-168" value="" style="endArrow=none;html=1;rounded=0;exitX=0.5;exitY=1;exitDx=0;exitDy=0;" edge="1" parent="1" source="ArgfW7lMdCNn1MuLzISp-169">
          <mxGeometry width="50" height="50" relative="1" as="geometry">
            <mxPoint x="570" y="1760" as="sourcePoint" />
            <mxPoint x="140" y="1030" as="targetPoint" />
            <Array as="points">
              <mxPoint x="740" y="1760" />
              <mxPoint x="320" y="1740" />
              <mxPoint x="110" y="1730" />
              <mxPoint x="40" y="1610" />
              <mxPoint x="50" y="1440" />
              <mxPoint x="70" y="1170" />
            </Array>
          </mxGeometry>
        </mxCell>
        <mxCell id="ArgfW7lMdCNn1MuLzISp-169" value="Writes" style="rhombus;whiteSpace=wrap;html=1;" vertex="1" parent="1">
          <mxGeometry x="742" y="1415" width="123" height="60" as="geometry" />
        </mxCell>
        <mxCell id="ArgfW7lMdCNn1MuLzISp-170" value="" style="endArrow=none;html=1;rounded=0;entryX=1;entryY=0.5;entryDx=0;entryDy=0;exitX=0;exitY=1;exitDx=0;exitDy=0;" edge="1" parent="1" source="ArgfW7lMdCNn1MuLzISp-98" target="ArgfW7lMdCNn1MuLzISp-169">
          <mxGeometry width="50" height="50" relative="1" as="geometry">
            <mxPoint x="973" y="1338" as="sourcePoint" />
            <mxPoint x="962" y="1250" as="targetPoint" />
            <Array as="points" />
          </mxGeometry>
        </mxCell>
        <mxCell id="ArgfW7lMdCNn1MuLzISp-171" value="M" style="text;html=1;align=center;verticalAlign=middle;whiteSpace=wrap;rounded=0;" vertex="1" parent="1">
          <mxGeometry x="943" y="1390" width="20" height="10" as="geometry" />
        </mxCell>
        <mxCell id="ArgfW7lMdCNn1MuLzISp-172" value="1" style="text;html=1;align=center;verticalAlign=middle;whiteSpace=wrap;rounded=0;" vertex="1" parent="1">
          <mxGeometry x="64" y="1146.5" width="37" height="57.5" as="geometry" />
        </mxCell>
        <mxCell id="ArgfW7lMdCNn1MuLzISp-173" value="Favorites" style="rhombus;whiteSpace=wrap;html=1;" vertex="1" parent="1">
          <mxGeometry x="800" y="1650" width="123" height="60" as="geometry" />
        </mxCell>
        <mxCell id="ArgfW7lMdCNn1MuLzISp-174" value="" style="endArrow=none;html=1;rounded=0;entryX=1;entryY=0;entryDx=0;entryDy=0;exitX=0.25;exitY=1;exitDx=0;exitDy=0;" edge="1" parent="1" source="ArgfW7lMdCNn1MuLzISp-110" target="ArgfW7lMdCNn1MuLzISp-173">
          <mxGeometry width="50" height="50" relative="1" as="geometry">
            <mxPoint x="1077" y="1570" as="sourcePoint" />
            <mxPoint x="1129" y="1625" as="targetPoint" />
            <Array as="points" />
          </mxGeometry>
        </mxCell>
        <mxCell id="ArgfW7lMdCNn1MuLzISp-175" value="1" style="text;html=1;align=center;verticalAlign=middle;whiteSpace=wrap;rounded=0;" vertex="1" parent="1">
          <mxGeometry x="10" y="1110" width="37" height="57.5" as="geometry" />
        </mxCell>
        <mxCell id="ArgfW7lMdCNn1MuLzISp-176" value="M" style="text;html=1;align=center;verticalAlign=middle;whiteSpace=wrap;rounded=0;" vertex="1" parent="1">
          <mxGeometry x="950" y="1565" width="20" height="10" as="geometry" />
        </mxCell>
        <mxCell id="ArgfW7lMdCNn1MuLzISp-177" value="" style="endArrow=none;html=1;rounded=0;exitX=0.5;exitY=1;exitDx=0;exitDy=0;" edge="1" parent="1" source="ArgfW7lMdCNn1MuLzISp-48">
          <mxGeometry width="50" height="50" relative="1" as="geometry">
            <mxPoint x="485" y="1239" as="sourcePoint" />
            <mxPoint x="590" y="1640" as="targetPoint" />
            <Array as="points">
              <mxPoint x="470" y="1350" />
              <mxPoint x="480" y="1490" />
              <mxPoint x="500" y="1630" />
            </Array>
          </mxGeometry>
        </mxCell>
        <mxCell id="ArgfW7lMdCNn1MuLzISp-178" value="Isfavorited" style="rhombus;whiteSpace=wrap;html=1;" vertex="1" parent="1">
          <mxGeometry x="590" y="1610" width="123" height="60" as="geometry" />
        </mxCell>
        <mxCell id="ArgfW7lMdCNn1MuLzISp-179" value="" style="endArrow=none;html=1;rounded=0;entryX=1;entryY=0.5;entryDx=0;entryDy=0;exitX=0;exitY=0;exitDx=0;exitDy=0;" edge="1" parent="1" source="ArgfW7lMdCNn1MuLzISp-110" target="ArgfW7lMdCNn1MuLzISp-178">
          <mxGeometry width="50" height="50" relative="1" as="geometry">
            <mxPoint x="950" y="1507.5" as="sourcePoint" />
            <mxPoint x="848" y="1612.5" as="targetPoint" />
            <Array as="points" />
          </mxGeometry>
        </mxCell>
        <mxCell id="ArgfW7lMdCNn1MuLzISp-180" value="M" style="text;html=1;align=center;verticalAlign=middle;whiteSpace=wrap;rounded=0;" vertex="1" parent="1">
          <mxGeometry x="941.5" y="1505" width="20" height="10" as="geometry" />
        </mxCell>
        <mxCell id="ArgfW7lMdCNn1MuLzISp-182" value="1" style="text;html=1;align=center;verticalAlign=middle;whiteSpace=wrap;rounded=0;" vertex="1" parent="1">
          <mxGeometry x="467" y="1244" width="13" height="16" as="geometry" />
        </mxCell>
        <mxCell id="ArgfW7lMdCNn1MuLzISp-183" value="UserRoles - Users: many-to-one (has).&lt;br&gt;&lt;br&gt;&lt;div&gt;Categories - Listings: one-to-many (belongs to).&lt;/div&gt;&lt;div&gt;&lt;br&gt;&lt;/div&gt;&lt;div&gt;Users - Listings: one-to-many (posts).&lt;/div&gt;&lt;div&gt;&lt;br&gt;&lt;/div&gt;&lt;div&gt;Users - Messages: one-to-many for both sender and receiver (sends and receives).&lt;/div&gt;&lt;div&gt;&lt;br&gt;&lt;/div&gt;&lt;div&gt;Users - Transactions: one-to-many for buyer and seller (buys and sells).&lt;/div&gt;&lt;div&gt;&lt;br&gt;&lt;/div&gt;&lt;div&gt;Listings - Transactions: one-to-many (has).&lt;/div&gt;&lt;div&gt;&lt;br&gt;&lt;/div&gt;&lt;div&gt;Transactions - Reviews: one-to-many (is reviewed by).&lt;/div&gt;&lt;div&gt;&lt;br&gt;&lt;/div&gt;&lt;div&gt;Users - Reviews: one-to-many (writes).&lt;/div&gt;&lt;br&gt;&lt;div&gt;Users - Favorites: one-to-many (favorites).&lt;/div&gt;&lt;br&gt;Listings - Favorites: one-to-many (is favorited)." style="text;html=1;align=center;verticalAlign=middle;whiteSpace=wrap;rounded=0;" vertex="1" parent="1">
          <mxGeometry x="1370" y="840" width="500" height="380" as="geometry" />
        </mxCell>
      </root>
    </mxGraphModel>
  </diagram>
</mxfile>
